{
  "accessors": [
    {
      "bufferView": 2,
      "componentType": 5126,
      "count": 47980,
      "max": [
        49.92945861816406,
        49.30097198486328,
        49.925025939941406
      ],
      "min": [
        -49.92945861816406,
        -49.49108123779297,
        -49.92510986328125
      ],
      "type": "VEC3"
    },
    {
      "bufferView": 2,
      "byteOffset": 575760,
      "componentType": 5126,
      "count": 47980,
      "max": [
        0.9999984502792358,
        1.0,
        0.999998152256012
      ],
      "min": [
        -0.9999984502792358,
        -1.0,
        -0.999998152256012
      ],
      "type": "VEC3"
    },
    {
      "bufferView": 3,
      "componentType": 5126,
      "count": 47980,
      "max": [
        0.9999972581863403,
        0.9995579123497009,
        0.9998874664306641,
        1.0
      ],
      "min": [
        -0.9999992847442627,
        -0.9985811114311218,
        -0.9999210238456726,
        -1.0
      ],
      "type": "VEC4"
    },
    {
      "bufferView": 1,
      "componentType": 5126,
      "count": 47980,
      "max": [
        0.9990231990814209,
        0.9773787260055542
      ],
      "min": [
        0.0009766146540641785,
        0.0010623112320899963
      ],
      "type": "VEC2"
    },
    {
      "bufferView": 0,
      "componentType": 5125,
      "count": 112980,
      "type": "SCALAR"
    },
    {
      "bufferView": 2,
      "byteOffset": 1151520,
      "componentType": 5126,
      "count": 14191,
      "max": [
        49.2482795715332,
        49.2482795715332,
        83.8812255859375
      ],
      "min": [
        -49.2482795715332,
        -49.2482795715332,
        -49.248291015625
      ],
      "type": "VEC3"
    },
    {
      "bufferView": 2,
      "byteOffset": 1321812,
      "componentType": 5126,
      "count": 14191,
      "max": [
        1.0,
        1.0,
        1.0
      ],
      "min": [
        -1.0,
        -1.0,
        -1.0
      ],
      "type": "VEC3"
    },
    {
      "bufferView": 3,
      "byteOffset": 767680,
      "componentType": 5126,
      "count": 14191,
      "max": [
        0.9999998211860657,
        0.9999999403953552,
        1.0,
        1.0
      ],
      "min": [
        -0.9999999403953552,
        -0.9999995231628418,
        -0.9999211430549622,
        1.0
      ],
      "type": "VEC4"
    },
    {
      "bufferView": 1,
      "byteOffset": 383840,
      "componentType": 5126,
      "count": 14191,
      "max": [
        0.9989627599716187,
        0.9407222867012024
      ],
      "min": [
        0.0010319650173187256,
        0.0011916738003492355
      ],
      "type": "VEC2"
    },
    {
      "bufferView": 0,
      "byteOffset": 451920,
      "componentType": 5125,
      "count": 58944,
      "type": "SCALAR"
    },
    {
      "bufferView": 4,
      "componentType": 5126,
      "count": 101,
      "max": [
        3.3333332538604736
      ],
      "min": [
        0.0
      ],
      "type": "SCALAR"
    },
    {
      "bufferView": 5,
      "componentType": 5126,
      "count": 101,
      "max": [
        0.7071068286895752,
        0.4999999701976776,
        0.7071068286895752,
        0.7071067094802856
      ],
      "min": [
        -0.48404791951179504,
        -0.7071067094802856,
        -0.5000000596046448,
        -0.4840478301048279
      ],
      "type": "VEC4"
    },
    {
      "bufferView": 4,
      "byteOffset": 404,
      "componentType": 5126,
      "count": 101,
      "max": [
        3.3333332538604736
      ],
      "min": [
        0.0
      ],
      "type": "SCALAR"
    },
    {
      "bufferView": 5,
      "byteOffset": 1616,
      "componentType": 5126,
      "count": 101,
      "max": [
        1.0,
        4.707848333396214e-08,
        1.0,
        6.657902673623539e-08
      ],
      "min": [
        -0.6845471262931824,
        -6.657902673623539e-08,
        -0.7071067690849304,
        -4.557648125569358e-08
      ],
      "type": "VEC4"
    }
  ],
  "animations": [
    {
      "channels": [
        {
          "sampler": 0,
          "target": {
            "node": 7,
            "path": "rotation"
          }
        },
        {
          "sampler": 1,
          "target": {
            "node": 4,
            "path": "rotation"
          }
        }
      ],
      "name": "Take 001",
      "samplers": [
        {
          "input": 10,
          "interpolation": "LINEAR",
          "output": 11
        },
        {
          "input": 12,
          "interpolation": "LINEAR",
          "output": 13
        }
      ]
    }
  ],
  "asset": {
    "extras": {
      "author": "Biser Borislavov (https://sketchfab.com/biserborislawow)",
      "license": "CC-BY-4.0 (http://creativecommons.org/licenses/by/4.0/)",
      "source": "https://sketchfab.com/3d-models/disco-ball-6ddd17cba53949769b1d6182232f69dc",
      "title": "Disco Ball"
    },
    "generator": "Sketchfab-15.63.0",
    "version": "2.0"
  },
  "bufferViews": [
    {
      "buffer": 0,
      "byteLength": 687696,
      "name": "floatBufferViews",
      "target": 34963
    },
    {
      "buffer": 0,
      "byteLength": 497368,
      "byteOffset": 687696,
      "byteStride": 8,
      "name": "floatBufferViews",
      "target": 34962
    },
    {
      "buffer": 0,
      "byteLength": 1492104,
      "byteOffset": 1185064,
      "byteStride": 12,
      "name": "floatBufferViews",
      "target": 34962
    },
    {
      "buffer": 0,
      "byteLength": 994736,
      "byteOffset": 2677168,
      "byteStride": 16,
      "name": "floatBufferViews",
      "target": 34962
    },
    {
      "buffer": 0,
      "byteLength": 808,
      "byteOffset": 3671904,
      "name": "floatBufferViews"
    },
    {
      "buffer": 0,
      "byteLength": 3232,
      "byteOffset": 3672712,
      "byteStride": 16,
      "name": "floatBufferViews"
    }
  ],
  "buffers": [
    {
      "byteLength": 3675944,
      "uri": "scene.bin"
    }
  ],
  "images": [
    {
      "uri": "textures/Mirror_baseColor.jpeg"
    },
    {
      "uri": "textures/Mirror_metallicRoughness.png"
    },
    {
      "uri": "textures/Mirror_normal.png"
    },
    {
      "uri": "textures/Plastic_ball_baseColor.jpeg"
    },
    {
      "uri": "textures/Plastic_ball_metallicRoughness.png"
    },
    {
      "uri": "textures/Plastic_ball_normal.png"
    }
  ],
  "materials": [
    {
      "doubleSided": true,
      "name": "Mirror",
      "normalTexture": {
        "index": 2,
        "scale": 0.5286174429014858
      },
      "occlusionTexture": {
        "index": 1
      },
      "pbrMetallicRoughness": {
        "baseColorTexture": {
          "index": 0
        },
        "metallicRoughnessTexture": {
          "index": 1
        },
        "roughnessFactor": 0.7595741506743946
      }
    },
    {
      "doubleSided": true,
      "name": "Plastic_ball",
      "normalTexture": {
        "index": 5
      },
      "occlusionTexture": {
        "index": 4
      },
      "pbrMetallicRoughness": {
        "baseColorTexture": {
          "index": 3
        },
        "metallicRoughnessTexture": {
          "index": 4
        }
      }
    }
  ],
  "meshes": [
    {
      "name": "Mirrors_Mirror_0",
      "primitives": [
        {
          "attributes": {
            "NORMAL": 1,
            "POSITION": 0,
            "TANGENT": 2,
            "TEXCOORD_0": 3
          },
          "indices": 4,
          "material": 0,
          "mode": 4
        }
      ]
    },
    {
      "name": "Sphere_Plastic_ball_0",
      "primitives": [
        {
          "attributes": {
            "NORMAL": 6,
            "POSITION": 5,
            "TANGENT": 7,
            "TEXCOORD_0": 8
          },
          "indices": 9,
          "material": 1,
          "mode": 4
        }
      ]
    }
  ],
  "nodes": [
    {
      "children": [
        1
      ],
      "matrix": [
        1.0,
        0.0,
        0.0,
        0.0,
        0.0,
        2.220446049250313e-16,
        -1.0,
        0.0,
        0.0,
        1.0,
        2.220446049250313e-16,
        0.0,
        0.0,
        0.0,
        0.0,
        1.0
      ],
      "name": "Sketchfab_model"
    },
    {
      "children": [
        2
      ],
      "matrix": [
        0.009999999776482582,
        0.0,
        0.0,
        0.0,
        0.0,
        0.0,
        0.009999999776482582,
        0.0,
        0.0,
        -0.009999999776482582,
        0.0,
        0.0,
        0.0,
        0.0,
        0.0,
        1.0
      ],
      "name": "d06b75a1a611439c9d20c6718442d489.fbx"
    },
    {
      "children": [
        3
      ],
      "name": "Object_2"
    },
    {
      "children": [
        4
      ],
      "name": "RootNode"
    },
    {
      "children": [
        5,
        7
      ],
      "name": "Mirrors",
      "rotation": [
        1.0,
        0.0,
        0.0,
        8.146034247147327e-08
      ]
    },
    {
      "children": [
        6
      ],
      "matrix": [
        1.0,
        0.0,
        -0.0,
        0.0,
        0.0,
        1.0,
        0.0,
        0.0,
        0.0,
        0.0,
        1.0,
        0.0,
        0.0,
        0.09505081176757813,
        4.1547991713741794e-09,
        1.0
      ],
      "name": "Object_5"
    },
    {
      "mesh": 0,
      "name": "Mirrors_Mirror_0"
    },
    {
      "children": [
        8
      ],
      "name": "Sphere",
      "rotation": [
        0.7071068286895752,
        0.0,
        0.0,
        0.7071067094802856
      ]
    },
    {
      "mesh": 1,
      "name": "Sphere_Plastic_ball_0"
    }
  ],
  "samplers": [
    {
      "magFilter": 9729,
      "minFilter": 9987,
      "wrapS": 10497,
      "wrapT": 10497
    }
  ],
  "scene": 0,
  "scenes": [
    {
      "name": "Sketchfab_Scene",
      "nodes": [
        0
      ]
    }
  ],
  "textures": [
    {
      "sampler": 0,
      "source": 0
    },
    {
      "sampler": 0,
      "source": 1
    },
    {
      "sampler": 0,
      "source": 2
    },
    {
      "sampler": 0,
      "source": 3
    },
    {
      "sampler": 0,
      "source": 4
    },
    {
      "sampler": 0,
      "source": 5
    }
  ]
}
